<svg id="Group_26443" data-name="Group 26443" xmlns="http://www.w3.org/2000/svg" width="18" height="18" viewBox="0 0 18 18">
  <g id="Path_37170" data-name="Path 37170" fill="#fff">
    <path d="M 15 17.5 L 3 17.5 C 1.621500015258789 17.5 0.5 16.37849998474121 0.5 15 L 0.5 3 C 0.5 1.621500015258789 1.621500015258789 0.5 3 0.5 L 15 0.5 C 16.37849998474121 0.5 17.5 1.621500015258789 17.5 3 L 17.5 15 C 17.5 16.37849998474121 16.37849998474121 17.5 15 17.5 Z" stroke="none"/>
    <path d="M 3 1 C 1.897199630737305 1 1 1.897199630737305 1 3 L 1 15 C 1 16.1028003692627 1.897199630737305 17 3 17 L 15 17 C 16.1028003692627 17 17 16.1028003692627 17 15 L 17 3 C 17 1.897199630737305 16.1028003692627 1 15 1 L 3 1 M 3 0 L 15 0 C 16.65685081481934 0 18 1.343149185180664 18 3 L 18 15 C 18 16.65685081481934 16.65685081481934 18 15 18 L 3 18 C 1.343149185180664 18 0 16.65685081481934 0 15 L 0 3 C 0 1.343149185180664 1.343149185180664 0 3 0 Z" stroke="none" fill="#ccd2d8"/>
  </g>
  <path id="Path_33328" data-name="Path 33328" d="M1828,441.876l2.868,2.906,5.571-5.626" transform="translate(-1823.523 -432.656)" fill="none" stroke="#ccd2d8" stroke-linecap="round" stroke-width="1.2"/>
</svg>
